<?xml version="1.0" encoding="utf-8"?>
<!-- Generator: Adobe Illustrator 24.1.1, SVG Export Plug-In . SVG Version: 6.00 Build 0)  -->
<svg version="1.1" id="Calque_1" xmlns="http://www.w3.org/2000/svg" xmlns:xlink="http://www.w3.org/1999/xlink" x="0px" y="0px"
	 viewBox="0 0 500 250" style="enable-background:new 0 0 500 250;" xml:space="preserve">
<style type="text/css">
	.st0{fill:#22B573;}
</style>
<g>
	<path class="st0" d="M24.6,89.3H60c17.2,0,25.6,6.5,25.6,19.9c0,7-2.4,12.4-7.3,15.7c6.8,3,9.3,9.4,9.4,17.5
		c0.1,13.7-8.4,21.3-26.5,21.3H24.6V89.3z M56.6,118c3.4,0,5.4-1.8,5.4-5.8c0-3.9-2-5.6-5.4-5.6h-7.8V118H56.6z M56.9,146.7
		c4,0,6.3-1.8,6.3-6.1c0-4.1-2.2-6.1-6.3-6.1h-8v12.1H56.9z"/>
	<path class="st0" d="M92.8,136.1c0-20,8.5-28.9,28.1-28.9c19.6,0,28.1,8.9,28.1,28.9c0,20-8.5,28.9-28.1,28.9
		C101.3,165.1,92.8,156.1,92.8,136.1z M125.8,136.1c0-9.1-1.2-11.4-4.9-11.4c-3.7,0-4.9,2.2-4.9,11.4s1.2,11.4,4.9,11.4
		C124.6,147.5,125.8,145.3,125.8,136.1z"/>
	<path class="st0" d="M155.4,108.5h21l2.1,5.4c4-4.1,8.7-6.7,15.4-6.7c10.5,0,15.7,6.8,15.7,16.3v40.3h-23.1v-34.1c0-3.3-1-5-4-5
		c-2.9,0-4,1.7-4,5v34.1h-23.1V108.5z"/>
	<path class="st0" d="M261.2,151.6h-20l-3.2,12.2h-25.4l26.4-74.4h24.8l26.5,74.4h-25.7L261.2,151.6z M256.6,134.5l-5.5-20.4
		l-5.4,20.4H256.6z"/>
	<path class="st0" d="M293.4,91.3l23.1-3.2v75.7h-23.1V91.3z"/>
	<path class="st0" d="M325,108.5h23.1v55.3H325V108.5z"/>
	<path class="st0" d="M441.1,123.5v40.3H418v-34.1c0-3.3-1-5-3.8-5c-2.8,0-3.8,1.7-3.8,5v34.1h-23.1v-34.1c0-3.3-1-5-3.8-5
		c-2.7,0-3.8,1.7-3.8,5v34.1h-23.1v-55.3h21l2.1,5.4c3.9-4.1,8.4-6.7,15-6.7c7,0,11.6,3,13.9,7.8c4.4-4.9,9.5-7.8,16.8-7.8
		C435.9,107.2,441.1,114,441.1,123.5z"/>
	<path class="st0" d="M448.7,120.2L449,99l14,9"/>
</g>
<path class="st0" d="M349.3,79.2c0-2.6-0.5-5.1-1.4-7.5c-2.2-6.3-9.1-9.5-15.4-7.3c-3.4,1.2-6.1,3.9-7.3,7.3
	c-0.9,2.4-1.4,4.9-1.4,7.5c0,9.1,3.2,11.1,5.9,14.1c2.1,2.2,3.8,4.8,3.8,8.8c-0.1,13-3.8,27.2-1.6,42.3c0.6,4,2.2,5.3,4.6,5.3
	c2.4,0,4-1.3,4.6-5.3c2.2-15.2-1.5-29.3-1.6-42.3c0-4,1.7-6.5,3.8-8.8C346.1,90.3,349.3,88.3,349.3,79.2z"/>
<path class="st0" d="M454.3,110.2c1.3-2.7,3.4-0.1,6.3-0.9c4.6-1.5,6.7-4.5,9.9-12.9l3.1-8c0.2-0.6,0-1.3-0.6-1.6l-0.1,0
	c-0.6-0.3-1.4-0.1-1.7,0.6l-6.9,13.8c-0.3,0.7-1,1-1.7,0.8c-0.6-0.4-0.8-1.2-0.4-1.8l6.9-13.8c0.3-0.6,0.1-1.4-0.6-1.7
	c-0.6-0.3-1.4-0.1-1.7,0.6L460.1,99c-0.3,0.7-1,1-1.7,0.8c-0.6-0.4-0.8-1.2-0.4-1.8l6.9-13.8c0.3-0.6,0.1-1.4-0.6-1.7
	c-0.6-0.3-1.4-0.1-1.7,0.6l-6.9,13.8c-0.3,0.7-1,1-1.7,0.8c-0.6-0.4-0.8-1.2-0.4-1.8l6.9-13.8c0.3-0.6,0.1-1.4-0.6-1.7c0,0,0,0,0,0
	l-0.1,0c-0.6-0.3-1.3-0.1-1.6,0.5l-4.6,7.3c-4.8,7.6-5.9,11.1-4.4,15.6c1.1,2.8,4.5,3.8,3.1,6.5"/>
</svg>
